Coordinates
version=1
nRows=10
nColumns=40
inDegrees=yes

Units are S.I. units (second, meters, Newtons, ...)
Angles are in degrees.

endheader
time	pelvis_tilt	pelvis_list	pelvis_rotation	pelvis_tx	pelvis_ty	pelvis_tz	hip_flexion_r	hip_adduction_r	hip_rotation_r	knee_angle_r	knee_angle_r_beta	ankle_angle_r	subtalar_angle_r	mtp_angle_r	hip_flexion_l	hip_adduction_l	hip_rotation_l	knee_angle_l	knee_angle_l_beta	ankle_angle_l	subtalar_angle_l	mtp_angle_l	lumbar_extension	lumbar_bending	lumbar_rotation	arm_flex_r	arm_add_r	arm_rot_r	elbow_flex_r	pro_sup_r	wrist_flex_r	wrist_dev_r	arm_flex_l	arm_add_l	arm_rot_l	elbow_flex_l	pro_sup_l	wrist_flex_l	wrist_dev_l
      1.98000000	      0.71977147	      3.38531607	     -6.44093056	      0.44940135	      0.89500151	     -1.21542332	     10.90850193	     -5.75898029	     -2.97542519	    -61.09913472	     -1.06638107	     -7.17096838	    -15.33280276	     14.04838802	      8.81280578	     -4.78713741	     13.63040988	    -13.84256457	     -0.24159833	      3.54765748	     -1.09392957	     -2.56308175	     -7.10923962	     -3.05500948	      1.40095582	     11.07971654	     -7.25698536	     19.75035734	     16.76624826	     89.95437384	      0.00000000	      0.00000000	     -0.65243409	      9.45078250	    -19.50956383	     15.54256620	     89.95437384	      0.00000000	      0.00000000
      1.99000000	      0.99774460	      3.14747173	     -6.37803615	      0.45873887	      0.89580490	     -1.21603492	     12.00646955	     -5.41405771	     -3.04527657	    -61.85753026	     -1.07961757	     -6.38297409	    -15.47824957	     13.81787900	      7.80848737	     -4.71842170	     13.49789548	    -13.83657736	     -0.24149383	      4.11682271	     -1.22550981	     -2.64268815	     -7.44735908	     -2.72050302	      1.03804089	     10.77583835	     -7.30881672	     19.79238880	     16.25365929	     89.95437384	      0.00000000	      0.00000000	      0.31802368	      9.59273466	    -19.39520218	     15.59218089	     89.95437384	      0.00000000	      0.00000000
      2.00000000	      1.23037195	      2.90356331	     -6.28941580	      0.46808748	      0.89653117	     -1.21658465	     13.08543635	     -4.96562710	     -3.05174154	    -62.31885664	     -1.08766923	     -5.74062055	    -15.36366805	     13.56734375	      6.86604044	     -4.63959594	     13.26929136	    -13.89095518	     -0.24244290	      4.60564749	     -1.29744165	     -2.70020204	     -7.72049722	     -2.38189239	      0.59939121	     10.44924068	     -7.37370036	     19.81748509	     15.83205767	     89.95437384	      0.00000000	      0.00000000	      1.22015423	      9.77391475	    -19.33014526	     15.75457152	     89.95437384	      0.00000000	      0.00000000
      2.01000000	      1.69989090	      2.39917893	     -6.04204456	      0.47789218	      0.89771914	     -1.21717246	     13.56922055	     -4.22393655	     -3.24404727	    -62.20709493	     -1.08571862	     -4.45942112	    -15.08710687	     13.27587842	      5.52389457	     -4.35811056	     12.54680573	    -13.80247528	     -0.24089864	      5.60566155	     -1.01437849	     -2.75711862	     -8.21255924	     -1.76109869	      0.12329594	     10.09365027	     -7.47255099	     19.80990383	     15.37821192	     89.95437384	      0.00000000	      0.00000000	      2.15467536	      9.92015812	    -19.42736850	     15.95368495	     89.95437384	      0.00000000	      0.00000000
      2.02000000	      1.83680271	      2.22894657	     -5.92057072	      0.48719018	      0.89823058	     -1.21794590	     14.73218112	     -3.85633755	     -3.28620472	    -62.25264480	     -1.08651362	     -4.00137210	    -14.92897240	     13.05593693	      4.67260755	     -4.33812370	     12.44087007	    -13.75067414	     -0.23999454	      5.99624930	     -1.06198864	     -2.78141853	     -8.33132471	     -1.44729898	     -0.39662105	      9.75742971	     -7.58224449	     19.82314261	     15.06498473	     89.95437384	      0.00000000	      0.00000000	      3.01807917	     10.13151579	    -19.50839050	     16.15393975	     89.95437384	      0.00000000	      0.00000000
      2.03000000	      2.30205890	      1.79694949	     -5.74734839	      0.49679641	      0.89935018	     -1.21839402	     15.15929900	     -3.20949907	     -3.49137175	    -61.61462217	     -1.07537802	     -2.99843571	    -14.40689526	     12.65217298	      3.32501804	     -4.11431632	     11.67490538	    -13.60650039	     -0.23747823	      6.81508153	     -0.68919876	     -2.74223756	     -8.79906066	     -0.90888152	     -0.76929974	      9.36814432	     -7.76049877	     19.80276769	     14.79329981	     89.95437384	      0.00000000	      0.00000000	      3.94716306	     10.47075454	    -20.36735273	     16.56035754	     89.95437384	      0.00000000	      0.00000000
      2.04000000	      2.28579729	      1.68598696	     -5.62726944	      0.50600853	      0.89950995	     -1.21901865	     16.38107079	     -2.92181819	     -3.66407068	    -61.15043500	     -1.06727643	     -2.52794701	    -14.19935079	     12.42180764	      2.65727477	     -4.11116823	     11.63782772	    -13.54230329	     -0.23635778	      7.13361539	     -0.74056780	     -2.75195222	     -8.69893986	     -0.64895853	     -1.13364001	      8.93910454	     -7.92413204	     19.77488146	     14.57460090	     89.95437384	      0.00000000	      0.00000000	      4.90115981	     10.71312075	    -20.24765533	     16.84563577	     89.95437384	      0.00000000	      0.00000000
      2.05000000	      2.40229846	      1.31802695	     -5.47860749	      0.51509060	      0.89989947	     -1.21933973	     17.23782733	     -2.26853681	     -3.85636374	    -60.25914849	     -1.05172055	     -1.37559732	    -13.88052628	     12.00100407	      1.83217853	     -3.84065807	     11.10202853	    -13.57909741	     -0.23699996	      7.75716795	     -0.82907656	     -2.79255932	     -8.81292075	     -0.15078867	     -1.45799250	      8.50167283	     -8.12077698	     19.72518659	     14.47160480	     89.95437384	      0.00000000	      0.00000000	      5.82210372	     10.95988198	    -20.34820941	     17.24807308	     89.95437384	      0.00000000	      0.00000000
      2.06000000	      2.30362508	      1.28593713	     -5.38332942	      0.52417718	      0.89976695	     -1.21996110	     18.44922379	     -2.12616014	     -4.15092078	    -59.31990149	     -1.03532759	     -1.01150015	    -13.53504257	     11.75147955	      1.30506597	     -3.89280595	     11.19023068	    -13.59788836	     -0.23732792	      8.06266165	     -0.82705820	     -2.79473578	     -8.62285126	      0.02770021	     -1.74339042	      8.03103709	     -8.33931958	     19.70477234	     14.37317602	     89.95437384	      0.00000000	      0.00000000	      6.69906558	     11.22570390	    -20.24794327	     17.73944983	     89.95437384	      0.00000000	      0.00000000
      2.07000000	      2.60701196	      0.82264562	     -5.12722100	      0.53338536	      0.90022814	     -1.22042038	     18.91541743	     -1.45937265	     -4.52093270	    -57.92601842	     -1.01099974	     -0.07486721	    -12.95031917	     11.16784123	      0.18342615	     -3.50256891	     10.85823747	    -13.43187719	     -0.23443048	      8.69276579	     -1.00934956	     -2.86807945	     -8.95035261	      0.63837884	     -2.12911280	      7.58869210	     -8.62224716	     19.71561245	     14.41598412	     89.95437384	      0.00000000	      0.00000000	      7.61252104	     11.53576181	    -20.36214315	     18.34542824	     89.95437384	      0.00000000	      0.00000000
